<svg width="18" height="18" viewBox="0 0 18 18" fill="none" xmlns="http://www.w3.org/2000/svg">
<g clip-path="url(#clip0_236_79)">
<path d="M10.125 12.9375H2.25C1.95163 12.9375 1.66548 12.819 1.4545 12.608C1.24353 12.397 1.125 12.1109 1.125 11.8125V6.75C1.125 6.45163 1.24353 6.16548 1.4545 5.95451C1.66548 5.74353 1.95163 5.625 2.25 5.625H10.125" stroke="#171717" stroke-linecap="round" stroke-linejoin="round"/>
<path d="M7.875 15.1875H4.5" stroke="#171717" stroke-linecap="round" stroke-linejoin="round"/>
<path d="M14.625 5.0625H12.375" stroke="#171717" stroke-linecap="round" stroke-linejoin="round"/>
<path d="M14.625 7.3125H12.375" stroke="#171717" stroke-linecap="round" stroke-linejoin="round"/>
<path d="M16.3125 2.8125H10.6875C10.3768 2.8125 10.125 3.06434 10.125 3.375V14.625C10.125 14.9357 10.3768 15.1875 10.6875 15.1875H16.3125C16.6232 15.1875 16.875 14.9357 16.875 14.625V3.375C16.875 3.06434 16.6232 2.8125 16.3125 2.8125Z" stroke="#171717" stroke-linecap="round" stroke-linejoin="round"/>
<path d="M6.1875 12.9375V15.1875" stroke="#171717" stroke-linecap="round" stroke-linejoin="round"/>
<path d="M13.5 13.5C13.966 13.5 14.3438 13.1222 14.3438 12.6562C14.3438 12.1903 13.966 11.8125 13.5 11.8125C13.034 11.8125 12.6562 12.1903 12.6562 12.6562C12.6562 13.1222 13.034 13.5 13.5 13.5Z" fill="#171717"/>
</g>
<defs>
<clipPath id="clip0_236_79">
<rect width="18" height="18" fill="white"/>
</clipPath>
</defs>
</svg>
