<svg width="86" height="35" viewBox="0 0 86 35" fill="none" xmlns="http://www.w3.org/2000/svg">
<path d="M56.122 3.32104C56.7956 2.8519 57.9811 1.75277 57.3344 1.10938C47.1634 3.72316 30.4586 9.1518 25.4067 11.7656C17.93 15.634 7.5 22.6094 2.77444 27.4483C0.88842 29.794 -1.10538 34.1638 6.00763 32.877L34.9042 25.4377L61.9822 19.2048C64.8112 18.5346 70.5097 17.1138 70.6713 16.7921M42 10.6094C42 10.6094 43.1528 9.39713 43.5934 9.1518C44.034 8.90648 44.4017 16.39 44.4017 16.39C44.6038 17.0602 45.1292 18.3202 45.6142 17.9985L48.6453 13.3741C49.0494 14.5134 50.2619 16.7921 51.8785 16.7921C52.6867 16.7921 54.667 16.3498 56.122 14.5804M56.122 14.5804L55.7179 12.1677M56.122 14.5804C56.4588 15.3847 57.3749 17.0334 58.3448 17.1942M53.293 6.94014C53.293 6.94014 53.5107 6.65974 53.6971 6.53801C53.8835 6.41629 55 8.10938 55 8.10938M58.951 12.3688C58.951 12.3688 58.9111 11.754 58.951 11.3635C58.991 10.9729 62.4537 17.3953 61.9822 16.39C61.5106 15.3847 61.0122 11.7254 62.7905 9.95605C63.1272 9.82201 64.0433 9.7952 65.0133 10.7603M68.0444 9.75499C67.5729 9.4869 67.034 8.83011 68.6506 8.34756L73.9045 7.74438V10.7603M73.9045 10.7603C71.2102 10.7603 65.6599 11.2026 65.0133 12.972C64.3666 14.7413 68.5159 14.7815 70.6713 14.5804C71.8164 14.4464 74.147 14.0979 74.3087 13.7762M73.9045 10.7603L74.3087 13.7762M74.3087 13.7762C75.8579 13.5081 79.118 12.8111 79.7647 12.1677M79.7647 12.1677C81.1118 11.6986 84.0082 10.5592 84.8165 9.75499M79.7647 12.1677C78.4714 12.1677 77.8786 11.4975 77.7439 11.1624C77.2589 8.74968 81.0445 7.61034 82.9979 7.34226C85.2611 7.02056 85.1533 8.8167 84.8165 9.75499M84.8165 9.75499V27.4483" stroke="#B8B8B8" stroke-width="2" stroke-linecap="round"/>
</svg>
